PathFileType        4      (X/Y/Z)      C:\Users\pc\Desktop\IMUTRC\Sujet_07\Sujet_07_Tpose.trc         
DataRate	CameraRate	NumFrames	NumMarkers	Units	OrigDataRate	OrigDataStartFrame	OrigNumFrames
60.0	60.0	4	64	mm	60.0	128	146
Frame#	Time	pHipOrigin			pRightASI			pLeftASI			pRightCSI			pLeftCSI			pRightIschialTub			pLeftIschialTub			pSacrum			pL5SpinalProcess			pL3SpinalProcess			pT12SpinalProcess			pIJ			pT4SpinalProcess			pT8SpinalProcess			pPX			pC7SpinalProcess			pTopOfHead			pRightAuricularis			pLeftAuricularis			pBackOfHead			pRightAcromion			pLeftAcromion			pRightArmLatEpicondyle			pRightArmMedEpicondyle			pLeftArmLatEpicondyle			pLeftArmMedEpicondyle			pRightUlnarStyloid			pRightRadialStyloid			pRightOlecranon			pLeftUlnarStyloid			pLeftRadialStyloid			pLeftOlecranon			pRightTopOfHand			pRightPinky			pRightBallHand			pLeftTopOfHand			pLeftPinky			pLeftBallHand			pRightGreaterTrochanter			pRightKneeLatEpicondyle			pRightKneeMedEpicondyle			pRightPatella			pLeftGreaterTrochanter			pLeftKneeLatEpicondyle			pLeftKneeMedEpicondyle			pLeftPatella			pRightTibialTub			pRightLatMalleolus			pRightMedMalleolus			pLeftTibialTub			pLeftLatMalleolus			pLeftMedMalleolus			pRightHeelFoot			pRightFirstMetatarsal			pRightFifthMetatarsal			pRightPivotFoot			pRightHeelCenter			pRightToe			pLeftHeelFoot			pLeftFirstMetatarsal			pLeftFifthMetatarsal			pLeftPivotFoot			pLeftHeelCenter			pLeftToe			
		X1	Y1	Z1	X2	Y2	Z2	X3	Y3	Z3	X4	Y4	Z4	X5	Y5	Z5	X6	Y6	Z6	X7	Y7	Z7	X8	Y8	Z8	X9	Y9	Z9	X10	Y10	Z10	X11	Y11	Z11	X12	Y12	Z12	X13	Y13	Z13	X14	Y14	Z14	X15	Y15	Z15	X16	Y16	Z16	X17	Y17	Z17	X18	Y18	Z18	X19	Y19	Z19	X20	Y20	Z20	X21	Y21	Z21	X22	Y22	Z22	X23	Y23	Z23	X24	Y24	Z24	X25	Y25	Z25	X26	Y26	Z26	X27	Y27	Z27	X28	Y28	Z28	X29	Y29	Z29	X30	Y30	Z30	X31	Y31	Z31	X32	Y32	Z32	X33	Y33	Z33	X34	Y34	Z34	X35	Y35	Z35	X36	Y36	Z36	X37	Y37	Z37	X38	Y38	Z38	X39	Y39	Z39	X40	Y40	Z40	X41	Y41	Z41	X42	Y42	Z42	X43	Y43	Z43	X44	Y44	Z44	X45	Y45	Z45	X46	Y46	Z46	X47	Y47	Z47	X48	Y48	Z48	X49	Y49	Z49	X50	Y50	Z50	X51	Y51	Z51	X52	Y52	Z52	X53	Y53	Z53	X54	Y54	Z54	X55	Y55	Z55	X56	Y56	Z56	X57	Y57	Z57	X58	Y58	Z58	X59	Y59	Z59	X60	Y60	Z60	X61	Y61	Z61	X62	Y62	Z62	X63	Y63	Z63	X64	Y64	Z64	
128	2.117	2.5021976186561563	1002.4029	-3.442833406090257	68.27851707569945	1106.66053	140.60001935942944	79.47230212937006	1104.4328	-143.4421650825332	23.45323072799102	1177.20522	113.09097277748403	32.69137829162499	1175.34878	-120.63314817054868	-58.94479751973766	943.88794	53.08538414604564	-54.362849407793654	942.99685	-63.71236278148568	-67.31961577854523	1025.42275	-6.369545125544129	-28.73971725579965	1117.65065	-5.617489517790953	-30.86920064722851	1234.53206	-7.2756760899620705	-50.31058637433415	1339.38375	-9.839888241070694	51.79150298998239	1595.72087	-10.39843457900483	-93.81437094137482	1535.20095	-15.578383049425435	-75.91178336349859	1443.27008	-12.873654321258531	81.46939285955105	1471.19093	-6.55440769453143	-103.93558536243731	1594.23572	-13.790545437846378	-39.46793376764224	1862.00851	-16.441673444680163	-26.994054227227288	1757.23108	51.2105334238272	-64.10687061929822	1762.65188	-88.71650297313087	-100.46042094137482	1762.94891	-4.067086779782278	-72.00114300106125	1578.64163	174.16517788087052	-59.14973644620774	1575.59707	-202.89677122085956	-40.487703960125856	1501.3395	448.3948003407458	14.7189387463699	1471.11667	434.3089102577934	-31.42802807828818	1464.50775	-471.3086385867035	23.38276009845228	1434.87898	-454.41180851171356	78.45621376857468	1427.67599	680.497551583344	70.38736562423247	1479.80481	692.9880465279026	-12.228128252568808	1461.98299	431.52705941491786	-16.45604866877079	1387.0571	-718.5284076138629	-36.8579804108486	1436.51264	-726.7061652640319	4.061989381120952	1426.93342	-455.1057319879067	250.5020055545957	1422.70074	773.3973389815393	179.49074884533536	1398.64128	714.9069435112946	115.2340307240363	1434.35917	684.6679240250165	29.174521577430426	1382.82442	-911.1769536586241	28.679798220589817	1360.76992	-818.6862276688851	4.2756563458906385	1395.37395	-751.3179740267869	-6.133264303521827	971.06621	171.46502538994844	-54.28895145062869	529.97626	153.43728220212907	-50.57291944061109	526.4119	67.69384595822625	-4.3026678480059815	526.11487	109.92787932083945	6.902499046660921	970.32363	-178.73797904801245	-50.987169972955094	530.19903	-168.1732710726915	-53.83733383863046	525.89209	-82.44440244744486	-4.518129988921125	525.001	-120.93698930398799	6.124087639090142	489.6544	111.91774905909138	-65.24031958300668	84.43084999999999	159.63330821979838	-62.44366418375017	81.53481	94.19517897702428	7.5549089260038755	491.43658	-122.54114610639432	-43.08940287021073	84.28234000000002	-179.47636496099082	-45.185947218095066	80.71798	-114.0627436301338	-102.44354303345949	0.07425999999999287	116.54622144132058	65.90513419040808	0.8168299999999916	135.7999391025685	39.128657037109505	3.861389999999987	210.5445379797889	74.14637802815315	2.524759999999989	179.74360605803008	-64.36250899699206	5.346539999999992	130.04353568539926	161.1031168303836	1.7821799999999872	210.91265639207091	-82.88626860439346	-0.07425999999999178	-134.45711152738943	84.11964266213326	-0.8910899999999901	-163.22427500535332	53.17505268298643	2.5990100000000145	-236.31009294208428	89.84356985183186	0.8910900000000127	-207.59392771673623	-45.58755108465581	4.901000000000009	-150.05038532873448	174.91697750288623	-0.5940599999999852	-243.70755214138134	
129	2.133	2.603630004887151	1002.32865	-3.470019452575289	68.44426916866954	1106.58627	140.60996831294443	79.63805422234012	1104.4328	-143.4322161290182	23.618982820961087	1177.13096	113.10092173099899	32.81999172434102	1175.42304	-120.55889317054867	-58.84335647325263	943.88794	53.05820309956062	-54.26141702156268	942.99685	-63.73954882797071	-67.15386368557517	1025.42275	-6.359596172029161	-28.57397382308362	1117.65065	-5.607545564275987	-30.703448554258443	1234.53206	-7.2657271364471026	-50.14484294161812	1339.38375	-9.829944287555728	51.85581403646742	1595.72087	-10.361304579004829	-93.68575750865878	1535.20095	-15.504128049425434	-75.7460312705285	1443.27008	-12.86370536774356	81.59800629226707	1471.19093	-6.480152694531429	-103.87127431595226	1594.30997	-13.753415437846373	-39.126494288441194	1862.00851	-16.587523970366256	-26.689739748026227	1757.23108	51.12898528437211	-64.0054295728132	1762.57762	-88.7436840196159	-100.19323646217374	1762.94891	-4.084323872752348	-71.83539090809118	1578.64163	174.17512683438545	-58.98398435323767	1575.52281	-202.88682226734463	-40.156208434439776	1501.3395	448.41469324777574	14.986118225570948	1471.04241	434.2916818250774	-31.197973599087135	1464.65626	-471.2615646331886	23.612809577653337	1435.02749	-454.36472589794454	78.62195720129068	1427.52748	680.507495536859	70.55311271720245	1479.58203	692.9980041416717	-11.960943773367774	1461.98299	431.5098223219478	-16.188869189569743	1387.27988	-718.5456360465789	-36.62792593164755	1436.73542	-726.6590913105168	4.329173860321987	1427.08193	-455.1229690808767	250.73205503379683	1422.32945	773.4444215953082	179.65649227805142	1398.34425	714.9168874648095	115.39976915675231	1434.1364	684.6778766387855	29.377395010146472	1383.12145	-911.2313207515941	28.946977699790807	1360.9927	-818.703456101601	4.542844485345711	1395.59672	-751.3351974595029	-6.031831917290845	971.06621	171.4378393434634	-54.25182145062868	529.97626	153.37297115564402	-50.47148705438009	526.4119	67.66665991174122	-4.265537848005984	526.11487	109.86356827435442	7.003935093145941	970.32363	-178.7651514342434	-50.88572892647008	530.19903	-168.20045211917653	-53.80020383863045	525.89209	-82.50871349392989	-4.480999988921127	525.001	-121.00130035047302	6.225528685575178	489.58014	111.89056801260635	-65.24031958300668	84.43084999999999	159.63330821979838	-62.40653418375017	81.53481	94.13086793053924	7.656349972488904	491.43658	-122.56832715287936	-43.08940287021073	84.35660000000001	-179.47636496099082	-45.185947218095066	80.71798	-114.0627436301338	-102.44354303345949	0.07425999999999287	116.54622144132058	65.90513419040808	0.8168299999999916	135.7999391025685	39.128657037109505	3.861389999999987	210.5445379797889	74.14637802815315	2.524759999999989	179.74360605803008	-64.36250899699206	5.346539999999992	130.04353568539926	161.1031168303836	1.7821799999999872	210.91265639207091	-82.88626860439346	-0.07425999999999178	-134.45711152738943	84.11964266213326	-0.8910899999999901	-163.22427500535332	53.17505268298643	2.5990100000000145	-236.31009294208428	89.84356985183186	0.8910900000000127	-207.59392771673623	-45.58755108465581	4.901000000000009	-150.05038532873448	174.91697750288623	-0.5940599999999852	-243.70755214138134	
130	2.15	2.7693820978572155	1002.32865	-3.4600704990603215	68.61001260138556	1106.58627	140.61991226645938	79.80380131531018	1104.50706	-143.42225851524924	23.720423867446115	1177.13096	113.07374068451396	32.921432770826044	1175.42304	-120.58607421703371	-58.67760438028256	943.88794	53.06815205307558	-54.0956649285926	942.99685	-63.729599874455744	-67.05242263909014	1025.42275	-6.386777218514191	-28.47253277659859	1117.57639	-5.634726610761018	-30.602012507773413	1234.53206	-7.2928995226780975	-50.08053189513309	1339.38375	-9.79281428755573	51.984427469183444	1595.72087	-10.287049579004831	-93.55713541568873	1535.20095	-15.429868049425439	-75.61741783781248	1443.27008	-12.789450367743566	81.6994473387521	1471.19093	-6.507333741016455	-103.7426522229822	1594.30997	-13.679155437846378	-38.81222719547113	1861.93425	-16.834810542537383	-26.449741315310202	1757.30534	51.01031580517105	-63.86685852632816	1762.42911	-88.83517611258596	-99.99036802945773	1763.02317	-4.13868230546837	-71.70677747537516	1578.56737	174.24938183438545	-58.855370920521636	1575.59707	-202.81256726734463	-39.92614529498468	1501.26524	448.4617722012907	15.21617270477202	1470.96816	434.33875577859226	-30.967910459632066	1464.73052	-471.21448567967354	23.77856167062339	1435.17601	-454.35477694442955	78.88914534074576	1427.37896	680.490272104143	70.78316719640355	1479.43352	693.0450780951866	-11.693764294166726	1461.90873	431.4925938892318	-15.921684710368709	1387.50265	-718.5628731395489	-36.397876452446496	1436.95819	-726.6120086967478	4.494925953292068	1427.23045	-455.11302012736184	250.89779846651277	1422.03242	773.4543655488233	179.82224437102144	1398.12148	714.9268364183246	115.56552124972234	1433.91363	684.6878255923003	29.607449489347516	1383.41848	-911.1842467980791	29.2141621789919	1361.28973	-818.720693194571	4.810028964546859	1395.89375	-751.352434552473	-5.930390870805795	971.06621	171.4106582969784	-54.18751906439769	529.97626	153.41009615564403	-50.47148705438009	526.4119	67.66665991174122	-4.16410180152095	526.11487	109.83639588812343	7.169678525861968	970.32363	-178.75520748072844	-50.78428787998504	530.19903	-168.22763316566156	-53.73589279214542	525.89209	-82.4715834939299	-4.379558942436098	525.001	-121.02848139695806	6.2626586855751825	489.58014	111.82625696612132	-65.20319458300668	84.43084999999999	159.56900583356742	-62.40653418375017	81.53481	94.13086793053924	7.720661018973942	491.43658	-122.53119715287936	-43.08940287021073	84.35660000000001	-179.47636496099082	-45.185947218095066	80.71798	-114.0627436301338	-102.44354303345949	0.07425999999999287	116.54622144132058	65.90513419040808	0.8168299999999916	135.7999391025685	39.128657037109505	3.861389999999987	210.5445379797889	74.14637802815315	2.524759999999989	179.74360605803008	-64.36250899699206	5.346539999999992	130.04353568539926	161.1031168303836	1.7821799999999872	210.91265639207091	-82.88626860439346	-0.07425999999999178	-134.45711152738943	84.11964266213326	-0.8910899999999901	-163.22427500535332	53.17505268298643	2.5990100000000145	-236.31009294208428	89.84356985183186	0.8910900000000127	-207.59392771673623	-45.58755108465581	4.901000000000009	-150.05038532873448	174.91697750288623	-0.5940599999999852	-243.70755214138134	
131	2.167	2.9351205305732426	1002.32865	-3.4501178852913164	68.81288969435562	1106.58627	140.56555883374335	79.90523370154119	1104.50706	-143.44944456173428	23.886167300162136	1177.13096	113.08368463802894	33.08718486379612	1175.42304	-120.57612526351876	-58.57617699405157	943.88794	53.04097466684459	-53.957098882107566	942.99685	-63.821083307171776	-66.88668420637411	1025.42275	-6.3768246047451855	-28.306785683628522	1117.57639	-5.624768996992013	-30.43626907505739	1234.53206	-7.282955569163131	-49.914779802163025	1339.38375	-9.78286533404076	52.150174562153516	1595.72087	-10.277091965235824	-93.4285219829727	1535.20095	-15.355613049425438	-75.45167074484242	1443.27008	-12.779492753974559	81.82806077146813	1471.19093	-6.4330787410164545	-103.61403879026619	1594.23572	-13.604900437846377	-38.5722287627551	1861.93425	-16.95348002173844	-26.182548175855107	1757.30534	50.993083712200985	-63.66399009361214	1762.35485	-88.88953454530198	-99.82461593648766	1763.02317	-4.128733351953413	-71.5781553824051	1578.56737	174.32364183438546	-58.99393696700669	1575.59707	-202.7210838346286	-39.69609581578362	1501.19099	448.5088548150597	15.483365844227109	1470.8939	434.32152368562225	-30.967910459632066	1464.87903	-471.21448567967354	23.84286405685438	1435.32452	-454.3176519444296	79.05488877346176	1427.15619	680.5002160576579	71.0132216756046	1479.21075	693.0921520487016	-11.4637011547116	1461.83447	431.53967284274665	-15.691635231167595	1387.72542	-718.5157905257798	-36.13068331299144	1437.18096	-726.629240789718	4.559228339523088	1427.30471	-455.07589512736183	251.06355055948302	1421.73539	773.4643145023382	180.05229385022255	1397.82445	714.9739190320935	115.83270572892343	1433.69086	684.6705884993303	29.87463762880259	1383.78977	-911.2014702307953	29.48134165819289	1361.66102	-818.737921627287	5.07720844374785	1396.19078	-751.369662985189	-5.727513777835753	971.06621	171.35630486426237	-54.08607801791267	529.97626	153.382915109159	-50.37005100789506	526.4119	67.63948752551023	-4.099790755035912	526.11487	109.87352588812342	7.271119572347004	970.32363	-178.7823885272135	-50.68285549375404	530.19903	-168.2548192121466	-53.634460405914425	525.96635	-82.49876954041491	-4.278126556205095	525.001	-121.0556674434431	6.326969732060213	489.58014	111.86338696612131	-65.20319458300668	84.43084999999999	159.56900583356742	-62.40653418375017	81.53481	94.13086793053924	7.822102065458971	491.43658	-122.55837819936438	-43.08940287021073	84.35660000000001	-179.47636496099082	-45.185947218095066	80.71798	-114.0627436301338	-102.44354303345949	0.07425999999999287	116.54622144132058	65.90513419040808	0.7425799999999917	135.7999391025685	39.128657037109505	3.861389999999987	210.5445379797889	74.14637802815315	2.524759999999989	179.74360605803008	-64.36250899699206	5.346539999999992	130.04353568539926	161.1031168303836	1.7821799999999872	210.91265639207091	-82.88626860439346	8.233123562730805E-15	-134.45711152738943	84.11964266213326	-0.8910899999999901	-163.22427500535332	53.17505268298643	2.6732700000000147	-236.31009294208428	89.84356985183186	0.8910900000000127	-207.59392771673623	-45.58755108465581	4.901000000000009	-150.05038532873448	174.91697750288623	-0.5940599999999852	-243.70755214138134	
